<svg version="1.2" xmlns="http://www.w3.org/2000/svg" viewBox="0 0 16 16" width="16" height="16">
	<title>My project (3) (3)-svg</title>
	<style>
		.s0 { fill: none;stroke: #f8f7f8;stroke-width: .1 } 
		.s1 { fill: none;stroke: #bdbcbf;stroke-width: .1 } 
		.s2 { fill: none;stroke: #eeeeee;stroke-width: .1 } 
		.s3 { fill: none;stroke: #c2c1c4;stroke-width: .1 } 
		.s4 { fill: none;stroke: #dedddf;stroke-width: .1 } 
		.s5 { fill: none;stroke: #dad9da;stroke-width: .1 } 
		.s6 { fill: none;stroke: #f3f3f3;stroke-width: .1 } 
		.s7 { fill: none;stroke: #e4e4e4;stroke-width: .1 } 
		.s8 { fill: none;stroke: #9a999d;stroke-width: .1 } 
		.s9 { fill: none;stroke: #a3a2a6;stroke-width: .1 } 
		.s10 { fill: none;stroke: #949498;stroke-width: .1 } 
		.s11 { fill: none;stroke: #9f9ea1;stroke-width: .1 } 
		.s12 { fill: none;stroke: #bbbabc;stroke-width: .1 } 
		.s13 { fill: none;stroke: #acacae;stroke-width: .1 } 
		.s14 { fill: none;stroke: #b2b1b4;stroke-width: .1 } 
		.s15 { fill: none;stroke: #cbcbcb;stroke-width: .1 } 
		.s16 { fill: none;stroke: #d6d6d7;stroke-width: .1 } 
		.s17 { fill: none;stroke: #e9e9e9;stroke-width: .1 } 
		.s18 { fill: none;stroke: #e7e6e7;stroke-width: .1 } 
		.s19 { fill: none;stroke: #b6b5b9;stroke-width: .1 } 
		.s20 { fill: none;stroke: #b0b0b3;stroke-width: .1 } 
		.s21 { fill: none;stroke: #d8d8da;stroke-width: .1 } 
		.s22 { fill: none;stroke: #cfcfd0;stroke-width: .1 } 
		.s23 { fill: none;stroke: #c6c6c8;stroke-width: .1 } 
		.s24 { fill: none;stroke: #d4d4d5;stroke-width: .1 } 
		.s25 { fill: none;stroke: #d0cfd2;stroke-width: .1 } 
		.s26 { fill: none;stroke: #a7a7ab;stroke-width: .1 } 
		.s27 { fill: none;stroke: #adacb0;stroke-width: .1 } 
		.s28 { fill: none;stroke: #deddde;stroke-width: .1 } 
		.s29 { fill: none;stroke: #c2c2c3;stroke-width: .1 } 
		.s30 { fill: none;stroke: #bdbdbf;stroke-width: .1 } 
		.s31 { fill: none;stroke: #aaaaac;stroke-width: .1 } 
		.s32 { fill: none;stroke: #ecebec;stroke-width: .1 } 
		.s33 { fill: none;stroke: #dfdfdf;stroke-width: .1 } 
		.s34 { fill: none;stroke: #e5e5e6;stroke-width: .1 } 
		.s35 { fill: none;stroke: #f6f5f6;stroke-width: .1 } 
		.s36 { fill: none;stroke: #939296;stroke-width: .1 } 
		.s37 { fill: none;stroke: #807f83;stroke-width: .1 } 
		.s38 { fill: none;stroke: #bbbabd;stroke-width: .1 } 
		.s39 { fill: none;stroke: #dbdbdc;stroke-width: .1 } 
		.s40 { opacity: 0;fill: #000000 } 
		.s41 { fill: #fdfcfd } 
		.s42 { fill: #f2f2f3 } 
		.s43 { fill: #87868a } 
		.s44 { fill: #cdcdce } 
		.s45 { fill: #adacb0 } 
		.s46 { fill: #bebec1 } 
		.s47 { fill: #b7b6b7 } 
		.s48 { fill: #dfdfdf } 
		.s49 { fill: #a1a1a5 } 
		.s50 { fill: #e9e9e9 } 
		.s51 { fill: #79787c } 
		.s52 { fill: #eeedee } 
	</style>
	<g id="Layer">
		<path id="Layer" class="s0" d="m8.2 1.2h0.1q0 0 0 0c-0.1 0-0.2 0-0.1 0q0 0 0 0 0 0 0 0 0 0 0 0 0 0 0 0l-0.1 0.1q0 0 0 0-0.3 0-0.6 0c-0.2 0-0.3 0-0.5 0.1q-0.1 0-0.1 0 0 0 0 0 0 0 0 0 0 0 0 0 0 0 0 0 0 0-0.1 0 0 0.1 0 0.1 0 0 0 0 0 0 0 0 0 0 0 0 0 0 0 0-0.1 0.1-0.1 0.1c-0.6 0.1-1.1 0.3-1.7 0.6-0.7 0.2-1.3 0.7-1.8 1.2-0.5 0.5-0.9 1-1.2 1.5q-0.1 0.1-0.1 0.1 0 0 0 0 0 0 0 0 0 0 0 0 0 0-0.1 0c0-0.1 0-0.2 0-0.3q0 0 0 0l-0.2 0.1q0 0 0 0l-0.1 0.1q0 0 0 0 0 0 0 0 0 0 0 0 0 0 0 0 0-0.1 0-0.1"/>
		<path id="Layer" class="s1" d="m10.3 1.6q-0.1 0-0.3 0c-0.7-0.2-1.5-0.1-2.2 0"/>
		<path id="Layer" class="s0" d="m7.8 1.6h0.1q0 0 0 0 0 0 0 0 0-0.1 0-0.1 0 0 0 0-0.1 0 0 0 0 0 0 0-0.1 0-0.1 0c-0.3 0-0.7 0.1-1 0.2-0.6 0.3-1.3 0.6-1.8 1q-0.2 0.1-0.6 0.4-0.5 0.4-0.7 0.9c-0.1 0.2-0.2 0.3-0.3 0.4q0 0 0 0 0 0 0 0 0 0 0 0.1 0 0 0 0c0.1 0.1 0.2-0.2 0.3-0.3 0-0.1 0.1-0.1 0.2-0.2q0.1-0.1 0.1-0.2 0.1-0.1 0.2-0.2c0.1-0.1 0.2-0.2 0.3-0.3q0.1-0.1 0.2-0.2 0.2-0.1 0.4-0.3"/>
		<path id="Layer" class="s2" d="m5.1 2.8c-0.1 0.1-0.2 0.1-0.3 0.2q-0.1 0.2-0.3 0.3-0.2 0.2-0.3 0.4c-0.1 0.1-0.2 0.3-0.3 0.4q-0.1 0.1-0.1 0.2-0.1 0-0.2 0.1 0 0 0 0 0 0 0 0 0 0 0 0 0 0 0 0 0 0 0 0.1-0.2 0.2-0.3 0.5 0 0 0 0c0 0.1 0 0.2-0.1 0.2 0 0.1 0 0.1 0 0.2q0 0 0 0 0 0 0 0 0 0 0 0 0 0 0 0 0 0.1-0.1 0.1c0 0.1-0.1 0.3-0.1 0.4 0.1 0.1 0 0.1 0 0.2q0 0 0 0 0 0 0 0 0 0 0 0.1 0 0 0 0c-0.2 0.2-0.1 0.5-0.1 0.7-0.1 0.3 0 0.6-0.1 0.9q-0.1 0.2-0.1 0.3 0 0 0 0 0 0 0 0 0 0 0 0 0 0 0 0h-0.1q0 0 0 0 0 0-0.1 0 0 0 0 0 0 0 0 0-0.1 0-0.1 0.1 0 0 0 0v0.1q-0.1 0-0.1 0 0 0-0.1 0.1 0 0 0 0 0 0 0 0 0 0 0 0 0 0 0 0-0.1 0-0.1 0.1 0 0 0 0 0 0 0 0 0 0 0 0 0 0 0 0h-0.1q0 0 0 0 0 0 0 0 0 0 0 0 0 0 0 0c-0.1 0-0.1 0.1-0.1 0.1q-0.1 0.1-0.2 0.1 0 0 0 0 0 0 0 0 0 0-0.1 0 0 0 0 0 0 0.1 0 0.1-0.1 0-0.1 0 0 0 0 0 0 0 0 0 0 0 0 0 0-0.1 0-0.1 0 0 0 0 0 0 0 0-0.1 0-0.1 0 0 0 0 0c0-0.1-0.1-0.2-0.1-0.3q-0.1-0.2-0.2-0.4 0-0.1 0.1-0.2c0-0.1 0-0.2 0-0.3q0 0 0-0.1-0.1-0.2-0.1-0.5 0 0 0 0 0 0 0 0 0 0 0 0 0 0 0 0h-0.1q0 0 0 0 0 0 0 0 0 0 0 0-0.1 0-0.1 0h0.1q0 0 0 0 0 0.1 0 0.1 0 0-0.1 0 0 0 0 0l-0.1 0.1q0 0 0 0 0 0 0 0 0 0 0 0 0 0 0 0v0.4q0 0 0 0 0 0.1 0 0.1 0 0 0 0 0 0 0 0-0.1-0.1-0.2-0.2 0 0 0 0v0.1q0 0 0 0 0 0 0 0 0 0 0 0 0 0 0 0 0 0 0 0"/>
		<path id="Layer" class="s3" d="m7.8 1.6l-0.8 0.2"/>
		<path id="Layer" class="s4" d="m7 1.8q-0.1 0-0.1 0.1"/>
		<path id="Layer" class="s5" d="m6.9 1.9q-0.5 0.1-1 0.4"/>
		<path id="Layer" class="s2" d="m5.9 2.3l-0.3 0.1"/>
		<path id="Layer" class="s6" d="m5.6 2.4q-0.1 0.1-0.2 0.2-0.1 0-0.1 0-0.1 0.1-0.2 0.2"/>
		<path id="Layer" class="s7" d="m5.5 2.6q-0.1 0-0.1 0.1"/>
		<path id="Layer" class="s7" d="m5.3 2.7q-0.2 0.1-0.3 0.3-0.4 0.3-0.7 0.7c-0.1 0.1-0.2 0.2-0.2 0.3q-0.1 0.1-0.2 0.2-0.4 0.5-0.6 1 0 0.1 0 0.3c-0.1 0.2-0.1 0.4-0.1 0.7q0 0 0 0-0.1 0.1-0.1 0.3c0 0.1 0 0.2 0 0.4q0 0.1 0 0.2c0 0.1-0.1 0.2-0.1 0.3q0 0.1 0 0.2 0 0.4 0.1 0.8c0 0 0 0.3-0.1 0.3q0 0 0 0 0 0 0 0 0 0 0 0 0 0 0 0 0 0.3 0 0.4 0 0.1 0.2 0.6 0 0 0 0.1 0 0 0 0 0 0 0 0 0 0.1 0 0.1 0 0 0 0 0 0-0.1-0.1 0 0-0.1-0.1 0 0 0 0 0 0 0 0 0 0 0 0 0 0 0 0l-0.1 0.1q0 0 0 0 0 0 0 0 0 0 0 0 0 0 0 0-0.1 0-0.1 0 0 0.1 0 0.1c-0.1 0-0.2 0.1-0.2 0.1q-0.1 0-0.2 0.1 0 0 0 0 0 0 0 0 0 0 0 0 0 0 0 0l-0.1-0.1q0 0 0 0 0 0 0 0 0 0 0 0 0 0 0 0-0.1 0.1-0.1 0.1 0 0 0 0 0 0 0 0 0 0 0 0 0 0 0 0l-0.1 0.2q0 0 0 0 0 0 0 0 0 0 0 0 0 0 0 0c-0.1 0-0.1 0-0.2 0.1q0 0 0 0 0 0 0 0 0 0 0 0 0 0 0 0c-0.1 0.2-0.2-0.1-0.3-0.2-0.1-0.1-0.5-0.8-0.6-0.8q0 0 0 0-0.1 0-0.1 0 0 0 0 0 0 0 0 0 0-0.1-0.1-0.2 0 0 0 0 0 0 0 0 0 0 0 0-0.1 0-0.1 0 0-0.1 0 0"/>
		<path id="Layer" class="s8" d="m10.1 1.7c0-0.1-0.1-0.1-0.1-0.1-0.2 0-0.4 0-0.6 0.1-0.1 0-0.2 0-0.3 0-0.4 0.1-0.7 0.2-1 0.3-0.6 0.2-1.2 0.6-1.8 1"/>
		<path id="Layer" class="s9" d="m6.3 3q-0.1 0.1-0.1 0.1c-0.1 0-0.1 0.1-0.1 0.1q0 0-0.1 0-0.4 0.4-0.8 0.9"/>
		<path id="Layer" class="s10" d="m5.2 4.1q-0.2 0.3-0.3 0.5 0 0.2-0.2 0.4-0.1 0.2-0.1 0.2 0 0.2-0.1 0.1 0 0 0 0 0 0 0 0 0 0 0 0 0 0 0 0 0-0.4 0.2-0.8 0 0 0-0.1 0.1-0.2 0.2-0.4 0.1-0.1 0.1-0.2c0.1-0.1 0.1-0.2 0.2-0.3 0.2-0.3 0.3-0.5 0.3-0.7q0 0 0 0 0 0 0 0 0 0 0 0 0.1 0 0.1 0c0-0.1 0.1-0.2 0.2-0.3q0.1 0 0.1-0.1"/>
		<path id="Layer" class="s11" d="m5.9 2.4q0.5-0.3 0.7-0.4 0.2-0.1 0.3-0.1"/>
		<path id="Layer" class="s9" d="m6.9 1.9q0.1 0 0.1-0.1"/>
		<path id="Layer" class="s7" d="m5.5 2.6l0.1-0.2"/>
		<path id="Layer" class="s12" d="m6.9 1.9"/>
		<path id="Layer" class="s13" d="m5.9 2.4q0 0-0.1 0.1 0 0 0 0v-0.1"/>
		<path id="Layer" class="s14" d="m5.8 2.4q0 0 0.1 0 0 0 0 0 0 0 0 0 0 0 0 0 0 0 0 0v-0.1"/>
		<path id="Layer" class="s12" d="m5.9 2.3q0.1 0 0.1 0 0 0 0 0 0 0 0 0-0.1 0-0.2 0.1"/>
		<path id="Layer" class="s15" d="m5.8 2.4q0 0 0 0 0 0 0 0 0 0 0 0 0 0 0-0.1 0 0 0 0 0.1 0 0.1 0 0 0 0 0 0 0 0 0 0 0 0 0 0 0 0 0"/>
		<path id="Layer" class="s16" d="m5.3 2.8q-0.1 0-0.2 0.1c0 0-0.1 0.2-0.2 0.2q0 0 0 0 0 0 0 0 0 0 0 0 0 0 0 0 0 0-0.1 0.1 0 0 0 0 0 0 0 0 0 0 0 0 0 0 0 0c0 0.1-0.1 0.1-0.1 0.1q-0.2 0.2-0.3 0.4-0.3 0.3-0.5 0.7-0.1 0.1-0.2 0.3 0 0 0 0.1-0.2 0.3-0.3 0.7 0 0.1-0.1 0.2 0 0 0 0 0 0 0 0.1 0 0 0 0 0 0 0 0c0 0 0 0.1 0 0.1q0 0.2-0.1 0.3 0 0.2 0 0.3 0 0.2 0 0.4-0.1 0.5-0.1 1.1 0.1 0.1 0.1 0.2 0 0 0 0 0 0 0 0 0 0 0 0 0 0 0 0 0 0.1 0 0.1c0 0.2 0.1 0.6 0.2 0.9q0 0.1 0 0.2 0.1 0.2 0.2 0.4 0 0.1 0.3 0.6 0.1 0.2 0.2 0.3c0.1 0.1 0.2 0.2 0.2 0.3q0 0 0 0 0 0 0 0 0 0 0 0 0 0 0.1 0c0.1 0.1 0.2 0.2 0.3 0.3 0 0 0 0 0 0 0.4 0.3 0.7 0.5 1.3 0.5 0.1 0 0.3-0.1 0.4-0.2 0 0 0.3-0.2 0.3-0.3q0 0 0 0 0 0 0 0 0 0 0 0 0 0 0 0 0 0 0 0 0 0 0 0 0 0 0 0 0 0 0 0c0-0.1 0-0.1-0.1-0.1q-0.2-0.2-0.4-0.4"/>
		<path id="Layer" class="s17" d="m4.6 7.5v0.2q0 0 0 0 0 0 0 0 0 0 0 0 0 0 0 0 0.1 0 0.1 0 0-0.3 0-0.4"/>
		<path id="Layer" class="s18" d="m7.1 11.3q-0.1 0.1 0 0.2 0.1 0 0.3 0.2 0.1 0 0.1 0 0 0 0 0 0 0 0 0 0 0 0 0 0.1 0 0.1 0.1 0 0 0 0 0 0 0 0 0 0 0 0 0 0 0 0c0.1 0.1 0 0.2-0.1 0.3q-0.1 0.1-0.1 0.2-0.2 0.3-0.6 0.3c-0.4 0-0.8-0.1-1.2-0.3q-0.1-0.1-0.3-0.2c-0.2-0.1-0.5-0.3-0.6-0.5-0.1 0-0.1-0.1-0.2-0.1 0-0.1-0.1-0.1-0.1-0.2 0 0-0.3-0.3-0.2-0.1"/>
		<path id="Layer" class="s16" d="m4.2 11.2c-0.1 0-0.1-0.1-0.3-0.2q0 0 0 0 0 0 0 0 0 0 0 0 0 0 0 0 0 0.1-0.1 0.1c-0.1-0.1-0.2-0.3-0.3-0.1-0.1 0.1-0.3 0.2-0.4 0.3q-0.1 0-0.2 0c0 0-0.1 0.1-0.2 0.1-0.1 0-0.1 0.2-0.2 0.1-0.2-0.2-0.4-0.3-0.6-0.6-0.2-0.1-0.3-0.3-0.4-0.3-0.1-0.2-0.3-0.4-0.5-0.5q0 0 0 0 0 0 0 0 0 0 0 0 0 0 0 0 0 0 0 0 0 0 0 0 0 0 0 0 0 0 0 0 0 0.1 0 0.1 0 0 0-0.1l-0.2-0.3"/>
		<path id="Layer" class="s19" d="m5.9 2.3l-0.2 0.2q0 0 0 0 0 0-0.1 0.1"/>
		<path id="Layer" class="s19" d="m5.6 2.6"/>
		<path id="Layer" class="s20" d="m5.6 2.6q-0.1 0-0.1 0.1-0.1 0-0.2 0.1c-0.1 0.1-0.1 0.1-0.2 0.2q0 0.1-0.1 0.1-0.2 0.3-0.4 0.6-0.1 0-0.1 0.1-0.1 0.1-0.2 0.2c0 0 0 0-0.1 0.1q-0.1 0.2-0.2 0.3c-0.1 0.3-0.2 0.5-0.3 0.7q-0.2 0.9-0.2 1.7c0 0.7 0 1.5 0.3 2.1q0.1 0.1 0.2 0.3c0.2 0.3 0.5 0.7 0.9 0.8 0.1 0.1 0.2 0.1 0.4 0.1q0 0 0 0 0 0 0 0 0 0 0 0 0 0 0 0c0-0.1-0.1-0.2-0.2-0.4 0-0.1-0.1-0.2-0.2-0.3q0-0.1 0-0.1-0.1-0.1-0.1-0.1c0-0.2-0.1-0.4-0.1-0.6q0 0 0-0.1-0.1-0.3-0.1-0.6 0 0 0 0 0 0 0 0 0 0 0 0 0 0 0 0h-0.1q0 0 0 0 0 0 0 0 0 0 0 0 0 0 0 0c0-0.3-0.1-0.5-0.1-0.7q0-0.2 0-0.5c0-0.2 0.1-0.5 0.1-0.7q0-0.2 0.1-0.4 0.1-0.1 0.1-0.3 0-0.1 0-0.1 0.1 0 0.1-0.1 0 0 0 0 0 0 0 0 0 0 0 0 0 0 0 0c0.2-0.2 0.1-0.4 0.3-0.6q0 0 0-0.1 0 0 0 0 0.1-0.1 0.1-0.3"/>
		<path id="Layer" class="s21" d="m6 3.3q-0.2 0.2-0.4 0.5-0.4 0.4-0.6 1 0 0.1-0.1 0.2-0.1 0.2-0.1 0.4 0 0 0 0 0 0 0 0 0 0 0 0 0 0 0 0 0 0.1-0.1 0.1 0 0 0 0 0 0 0 0 0 0 0 0 0 0 0 0 0 0.2 0 0.3-0.1 0.1-0.1 0.3 0 0.1 0 0.1c0 0.2-0.1 0.5-0.1 0.7q0 0.3 0.1 0.6"/>
		<path id="Layer" class="s22" d="m4.6 7.5c0 0.1 0 0.2 0 0.3 0 0.1 0 0.2 0 0.2q0.1 0.2 0.1 0.3 0 0.1 0.1 0.2 0 0.1 0 0.2 0 0 0 0c0 0.1 0.1 0.1 0.1 0.2q0 0.1 0.1 0.2c0 0.1 0 0.1 0.1 0.2q0 0 0 0 0 0 0 0 0 0 0 0 0 0 0 0c0 0.1 0 0.1 0 0.1q0.3 0.6 0.6 1 0.1 0.1 0.5 0.4"/>
		<path id="Layer" class="s23" d="m6.2 10.8q0 0.1-0.1 0.1c0 0.1-0.4 0.1-0.4 0.1-0.3 0-0.5 0-0.8-0.2-0.3-0.1-0.5-0.2-0.7-0.4q-0.2-0.3-0.2-0.3-0.2-0.2-0.3-0.5c-0.2-0.3-0.3-0.7-0.4-1.1q0-0.2 0-0.5c-0.1-0.4-0.1-0.8-0.1-1.2q0.1-0.1 0.1-0.3 0-0.1 0-0.2c0-0.1 0-0.2 0-0.3q0.1-0.2 0.2-0.5 0 0 0 0 0.1-0.4 0.3-0.8c0 0 0-0.1 0.1-0.2 0 0 0-0.1 0.1-0.2 0.1-0.1 0.1-0.2 0.2-0.3q0.1-0.1 0.1-0.1 0.1-0.2 0.3-0.4 0.2-0.3 0.4-0.5 0 0 0 0 0 0 0 0 0 0 0 0 0 0 0 0 0.1 0 0.1 0 0 0 0 0 0 0 0 0 0 0 0 0 0 0 0 0l0.2-0.2"/>
		<path id="Layer" class="s22" d="m5.3 2.8v-0.1q0 0 0 0 0 0 0 0 0 0 0 0 0 0 0 0 0 0 0 0"/>
		<path id="Layer" class="s24" d="m5.3 2.7q0 0 0.1 0"/>
		<path id="Layer" class="s22" d="m5.4 2.7l0.1-0.1"/>
		<path id="Layer" class="s22" d="m5.5 2.6q0.2-0.1 0.3-0.2"/>
		<path id="Layer" class="s25" d="m6.1 3.5q-0.1-0.1 0-0.1 0 0 0 0 0 0 0 0 0 0 0 0 0 0 0 0 0-0.1-0.1-0.1"/>
		<path id="Layer" class="s19" d="m6 3.3l0.3-0.3"/>
		<path id="Layer" class="s26" d="m5.6 2.6q-0.2 0.1-0.3 0.3-0.1 0 0 0 0.1-0.1 0.2-0.2c0 0 0.1-0.1 0.1-0.1"/>
		<path id="Layer" class="s26" d="m5.8 2.4l-0.2 0.2"/>
		<path id="Layer" class="s27" d="m5.6 2.6"/>
		<path id="Layer" class="s28" d="m4.2 11.2c0.2 0.3 0.4 0.6 0.7 0.8 0 0 0.5 0.4 0.5 0.4q0 0 0 0 0 0 0 0 0 0 0 0 0 0 0 0 0.4 0.3 0.7 0.5 0.1 0 0.2 0.1c0 0 0.1 0 0.1 0q0 0 0 0.1 0 0 0 0 0 0 0.1 0 0 0 0 0 0.2 0.1 0.5 0.2 0.2 0 0.4 0.1 0.1 0 0.2 0.1 0.2 0 0.3 0c0.1 0.1 0.3 0 0.4 0.1q0.1 0 0.4 0 0 0 0.1 0 0.4 0 0.8 0"/>
		<path id="Layer" class="s16" d="m9.6 13.6q0.1 0 0.3 0"/>
		<path id="Layer" class="s28" d="m9.9 13.6h0.1"/>
		<path id="Layer" class="s16" d="m10 13.6q0.2-0.1 0.4-0.1"/>
		<path id="Layer" class="s16" d="m10.4 13.5h0.3"/>
		<path id="Layer" class="s23" d="m10.7 13.5h-0.5q0 0 0 0 0.3 0 0 0.1-0.1 0-0.1 0"/>
		<path id="Layer" class="s29" d="m10.1 13.6h-0.1"/>
		<path id="Layer" class="s30" d="m10 13.6c0 0-0.3 0-0.4 0.1q0 0 0 0 0 0 0 0 0 0 0 0 0 0 0 0c-0.5 0-0.9 0-1.4 0q-0.3-0.1-0.6-0.1-0.3-0.1-0.6-0.2c-0.1 0-0.3-0.1-0.4-0.1q-0.1-0.1-0.3-0.1-0.1 0-0.2-0.1-0.1 0-0.1 0c-0.1-0.1-0.3-0.2-0.4-0.1q0 0 0 0 0 0 0 0 0 0 0 0 0 0 0 0c-0.1 0.1-0.4 0.2-0.4 0.3q0.1 0.2 0.2 0.2 0.1 0.2 0.2 0.3 0 0 0 0 0 0 0 0 0 0 0 0 0 0 0 0c0.1 0.1 0.2 0.2 0.2 0.2 0.2 0.1 0.3 0.1 0.4 0.1q0.2 0.1 0.4 0.2c0.2 0 0.5 0.1 0.7 0.1 0.7 0.1 1.1 0.1 1.8 0q0.4 0 0.9-0.2c0.1 0 0.2 0 0.3 0q0.2-0.1 0.4-0.2 0.1 0 0.5-0.1 0.1 0 0.2-0.1 0 0 0 0 0.1 0 0.1 0 0 0 0 0 0 0 0 0 0 0 0 0 0 0 0 0 0.1 0.1 0 0.1"/>
		<path id="Layer" class="s29" d="m11.5 13.9q-0.2 0.2-0.5 0.2-0.1 0-0.1 0.1-0.1 0-0.2 0-0.3 0.2-0.7 0.3-0.1 0-0.1 0c-0.1 0-0.1 0-0.2 0.1q0 0 0 0 0 0 0 0 0 0 0 0 0 0 0 0-0.2 0-0.3 0c0 0-0.1 0-0.2 0q-0.1 0.1-0.3 0.1c-0.1 0-0.3 0-0.3 0q0 0.1 0 0.1 0 0 0 0 0 0 0 0 0 0 0.1 0 0.1 0 0.3 0c0.1-0.1 0.3-0.1 0.5-0.1q0.8-0.1 1.5-0.4"/>
		<path id="Layer" class="s31" d="m11 14.3c1-0.4 1.8-0.8 2.6-1.5"/>
		<path id="Layer" class="s30" d="m13.6 12.8q0.6-0.4 1-1.1 0.2-0.3 0.5-0.7 0 0 0 0 0 0 0.1 0 0 0 0 0 0 0 0 0c0 0.1-0.1 0.1-0.1 0.3"/>
		<path id="Layer" class="s18" d="m11.7 13.1q-0.2 0-0.3 0.1-0.1 0-0.3 0.1 0 0-0.1 0"/>
		<path id="Layer" class="s18" d="m11 13.3q-0.6 0.2-1.2 0.2 0 0 0 0 0 0 0 0 0 0 0 0 0 0-0.1 0 0 0 0 0-0.7 0.1-1.4 0"/>
		<path id="Layer" class="s32" d="m8.3 13.5l-0.5-0.1"/>
		<path id="Layer" class="s18" d="m7.8 13.4h-0.5q0-0.1 0 0 0.3 0 0.6 0.1c0.3 0.1 0.6 0.1 0.8 0.1q0 0 0 0 0 0 0 0 0 0 0 0 0 0 0 0 0 0 0 0 0.7 0 1.2-0.1 0.2 0 0.3 0 0.1 0 0 0l-0.2 0.1"/>
		<path id="Layer" class="s18" d="m9.9 13.6h-0.3"/>
		<path id="Layer" class="s12" d="m10.4 13.5q0 0-0.1 0.1-0.1 0-0.2 0"/>
		<path id="Layer" class="s23" d="m10.7 13.4q0.2 0 0.3 0"/>
		<path id="Layer" class="s23" d="m11 13.4q0.1 0 0.2-0.1"/>
		<path id="Layer" class="s16" d="m11.6 13.2q-0.1 0-0.1 0"/>
		<path id="Layer" class="s22" d="m11.5 13.2c-0.1 0.1-0.2 0.1-0.3 0.1"/>
		<path id="Layer" class="s16" d="m11.2 13.3q-0.1 0-0.2 0.1"/>
		<path id="Layer" class="s22" d="m11 13.4"/>
		<path id="Layer" class="s16" d="m11 13.4h-0.3"/>
		<path id="Layer" class="s22" d="m10.7 13.4q0 0 0 0.1"/>
		<path id="Layer" class="s33" d="m10.4 13.5q0.1-0.1 0.3-0.1 0.2 0 0.3-0.1"/>
		<path id="Layer" class="s7" d="m7.8 13.4q0.2 0.1 0.5 0.1"/>
		<path id="Layer" class="s8" d="m13.6 12.8q0 0 0 0 0 0 0 0 0 0 0 0 0-0.1 0-0.1 0.2-0.1 0.4-0.3 0.3-0.3 0.5-0.6 0.1-0.2 0.3-0.4c0-0.1 0.1-0.2 0.1-0.3"/>
		<path id="Layer" class="s11" d="m11 14.3c-0.1 0 0-0.1 0-0.1 0.1-0.1 0.3-0.1 0.3-0.2"/>
		<path id="Layer" class="s8" d="m11.3 14c0.2 0 0.3-0.1 0.4-0.2q0 0 0.1 0 0 0 0 0 0 0-0.1 0 0 0 0 0v0.1q0 0 0 0c0.3-0.2 0.5-0.3 0.8-0.5q0-0.1 0.1-0.1 0-0.1 0-0.1 0 0 0 0 0 0 0 0 0 0 0 0-0.1 0-0.1 0-0.1 0.1-0.2 0.1-0.1 0-0.2 0-0.4 0.3-0.8 0.4-0.1 0-0.1 0 0 0 0 0c-0.1 0-0.3 0.1-0.4 0.1q-0.2 0-0.3 0c-0.2 0-0.5 0-0.5 0q0 0 0 0 0 0 0 0 0 0 0 0 0 0 0 0c0.1-0.1 0.3-0.2 0.5-0.2q0 0 0 0 0 0 0 0 0 0 0 0 0 0 0 0 0 0 0 0 0 0 0 0 0 0 0 0 0 0 0 0 0.2 0 0.4-0.1 0 0 0.1 0 0.1-0.1 0.2-0.1 0 0 0 0c-0.1 0-0.2 0-0.2 0q-0.1 0.1-0.1 0.1c-0.1 0-0.2 0-0.3 0"/>
		<path id="Layer" class="s9" d="m10.6 13.5q0.2 0 0.3-0.1c0.1 0 0.2 0 0.3-0.1q0 0 0 0 0 0 0 0 0 0 0 0 0 0 0 0 0 0 0 0 0 0 0 0 0 0 0.1 0 0 0 0 0 0.1 0 0.3-0.1 0 0 0.1 0"/>
		<path id="Layer" class="s31" d="m11.7 13.2"/>
		<path id="Layer" class="s14" d="m10 13.6q0 0-0.1 0 0 0 0 0l-0.1 0.1q0 0 0 0 0.3-0.1 0.6-0.2"/>
		<path id="Layer" class="s19" d="m10.4 13.5h0.2"/>
		<path id="Layer" class="s14" d="m11.3 14q0.1 0 0.2-0.1"/>
		<path id="Layer" class="s3" d="m12.3 12.9q-0.1 0-0.2 0.1 0 0 0 0 0 0-0.1 0.1 0 0 0 0 0 0 0 0 0 0 0 0 0 0 0 0c-0.1 0-0.2 0-0.3 0.1"/>
		<path id="Layer" class="s34" d="m11.7 13.2h-0.1"/>
		<path id="Layer" class="s2" d="m11.6 13.2q0.1-0.1 0.1-0.1c0 0 0 0 0 0"/>
		<path id="Layer" class="s35" d="m11.7 13.1c-0.1 0-0.2 0-0.3 0-0.1 0.1-0.3 0.1-0.4 0.1-0.1 0-0.2 0.1-0.3 0.1q-0.2 0-0.3 0-0.5 0.1-1 0.1c-0.1-0.1-0.4-0.1-0.4-0.1q0 0 0 0 0 0 0 0 0 0 0-0.1 0 0 0 0c0.1 0 0.1 0 0.2 0q0.3 0 0.7-0.1c0.5-0.1 1.1-0.1 1.7-0.3q0.5-0.1 1.4-0.5 0.2-0.2 0.6-0.4 0 0 0 0 0 0 0-0.1 0 0 0 0 0 0 0 0c0.2 0 0.2-0.1 0.3-0.1q0.6-0.4 1-0.9 0.1-0.1 0-0.1 0 0 0 0-0.1 0-0.1 0 0 0 0 0 0 0 0 0-0.4 0.4-1 0.7 0 0 0 0 0 0 0 0 0 0 0 0 0 0 0 0v0.1q0 0 0 0 0 0 0 0 0 0 0 0 0 0 0 0c-0.4 0.3-0.9 0.5-1.4 0.7q-0.2 0.1-0.6 0.1c-0.4 0.1-0.8 0.2-1.2 0.2q-0.8 0-1.5-0.2 0 0 0 0 0 0 0 0 0 0 0 0 0 0 0 0c0.1-0.1-0.2-0.1-0.3-0.1q0 0 0 0c-0.1-0.1-0.2-0.1-0.3-0.1q0 0 0 0 0 0 0 0 0 0 0 0 0 0 0 0v-0.1q0 0 0 0 0 0 0 0 0 0 0 0 0 0 0 0 0.1 0 0 0 0-0.1 0-0.1 0 0 0 0 0 0 0 0 0 0 0 0 0 0 0 0"/>
		<path id="Layer" class="s23" d="m11.7 13.2h-0.1q0 0 0 0 0 0 0 0 0 0 0 0 0 0 0 0-0.1 0-0.1 0"/>
		<path id="Layer" class="s36" d="m15.3 10.9q0-0.1 0-0.2 0 0 0 0l-0.4 0.4"/>
		<path id="Layer" class="s37" d="m14.9 11.1q-0.1 0.1-0.2 0.2-0.6 0.6-1.3 1.2-0.5 0.3-1 0.6 0 0-0.1 0c-0.1 0.1-0.2 0.1-0.3 0.1q0 0 0 0 0 0 0-0.1 0 0 0 0 0 0 0 0 0 0 0 0 0 0 0 0c0.1 0 0.2 0 0.2-0.1q0 0 0 0 0 0 0 0 0 0 0 0 0 0 0 0l0.1-0.1"/>
		<path id="Layer" class="s38" d="m12.3 12.9q1.2-0.6 2.1-1.5 0.5-0.5 0.9-1c0.1 0 0.5-0.6 0.3-0.6"/>
		<path id="Layer" class="s31" d="m9.2 1.6q-0.9-0.1-1.7 0.2 0 0 0 0 0 0 0 0 0 0 0 0 0 0 0 0c-0.1 0.1 0.3 0 0.3 0q0.1 0 0.1 0 0 0 0 0 0 0 0 0 0 0 0 0c0.1 0 0.1-0.1 0.3-0.1 0.3-0.1 0.6-0.1 1-0.1q0 0 0 0z"/>
		<path id="Layer" class="s26" d="m5.1 3q0 0 0 0 0 0.1 0 0 0.1 0 0.1 0 0 0 0 0 0 0 0 0 0 0-0.1 0 0 0 0 0 0 0 0 0 0 0 0 0z"/>
		<path id="Layer" class="s26" d="m4.9 3.2l-0.1 0.2q0 0 0 0 0.1-0.1 0.1-0.2z"/>
		<path id="Layer" class="s26" d="m4.9 3.2q0.1 0 0.2-0.1 0 0 0 0z"/>
		<path id="Layer" class="s26" d="m4.7 3.6q-0.1 0-0.1 0.1 0 0 0 0 0-0.1 0.1-0.1z"/>
		<path id="Layer" class="s26" d="m4.7 3.6q0-0.1 0.1-0.2 0 0 0 0-0.1 0.1-0.1 0.2z"/>
		<path id="Layer" class="s16" d="m7.1 14.7q0.6 0 1.2 0 0.1 0 0.2 0c0.1 0 0.1-0.1 0-0.1-0.5 0-0.9 0-1.4-0.1q-0.1 0-0.2 0-0.3-0.1-0.6-0.2-0.1 0-0.1 0-0.4-0.1-0.7-0.2"/>
		<path id="Layer" class="s39" d="m5.5 14.1q-0.5-0.2-0.9-0.4-0.1 0-0.3-0.1-0.1-0.1-0.1-0.1c-0.1 0-0.5-0.2-0.5-0.2q0 0 0 0 0 0 0 0 0 0 0 0 0 0 0 0v0.1q0 0 0 0 0 0 0 0.1 0 0 0 0 0 0 0 0 0 0 0 0 0 0 0 0 0 0 0 0 0 0 0 0 0 0 0.1 0 0 0 0 0 0 0.1 0.1 0.1 0.1 0.1 0.3 0.2 0.1 0.1 0.2 0.1 0.5 0.3 1 0.5c0.2 0 0.3 0 0.4 0.1q0.1 0 0.1 0 0.2 0.1 0.4 0.1 0.1 0 0.2 0 0.3 0.1 0.6 0.1"/>
		<path id="Layer" class="s7" d="m5.5 14.1q0.1 0 0.2 0.1 0.2 0.1 0.5 0.1 0 0 0 0 0 0 0 0 0 0 0 0 0 0 0 0 0 0 0 0 0.5 0.2 1.1 0.2 0.1 0.1 0.3 0.1 0 0 0 0 0 0 0 0 0 0 0 0.1 0 0 0 0 0 0-0.1 0-0.2 0-0.4 0"/>
		<path id="Layer" class="s14" d="m9.6 13.7q0 0 0 0 0 0 0 0 0 0 0 0 0 0-0.1 0 0 0 0 0 0 0 0 0 0 0 0 0 0 0 0 0 0 0 0 0 0 0 0 0 0 0 0 0 0 0 0 0 0.1 0 0.1 0 0 0 0 0 0 0 0 0 0 0 0 0z"/>
	</g>
	<path id="Layer" fill-rule="evenodd" class="s40" d="m0 0h16v16h-16zm1.5 4.8c-0.5 0.8-0.8 1.8-0.9 2.7q-0.1 0.8 0.1 1.7 0.1 0.3 0.1 0.6c0.6 1.8 1.8 3.3 3.4 4.2 0.6 0.4 1.4 0.6 2 0.7 0.1 0.1 0.5 0.1 0.7 0.1 0.7 0.1 1.5 0.1 2.3 0 0.7 0 1.4-0.2 2.1-0.5 1.5-0.6 2.9-1.5 3.8-3l0.2-0.4q0.2-0.4 0.3-0.8 0.1-0.1 0.1-0.3 0-0.1 0 0-0.1 0-0.1 0-0.1 0.1-0.1 0.2c-0.3 0.1-0.5 0.4-0.6 0.5q-1 0.8-2.2 1.2-0.2 0.1-0.4 0.1c-0.4 0.1-0.8 0.2-1.3 0.2-0.8 0.1-1.7 0.1-2.5-0.1q-0.8-0.2-1.4-0.6c-1.1-0.6-1.9-1.7-2.2-2.9q-0.1-0.5-0.2-1.1 0-0.3 0-0.7 0-0.1 0.1-0.3 0.2-1.6 1.3-2.8c0.6-0.7 1.4-1.2 2.3-1.5q0.1-0.1 0.3-0.1c0.2-0.1 0.4-0.1 0.7-0.2q0.3 0 0.7 0c0 0 0.3 0 0.2-0.1q-0.3-0.1-0.5-0.2-0.8-0.2-1.6-0.2-0.8-0.1-1.2 0c-2.3 0.2-4.4 1.6-5.5 3.6z"/>
	<path id="Layer" class="s41" d="m8.2 1.2h0.1q0 0 0 0c-0.1 0-0.2 0-0.1 0q0 0 0 0 0 0 0 0 0 0 0 0 0 0 0 0l-0.1 0.1q0 0 0 0-0.3 0-0.6 0c-0.2 0-0.3 0-0.5 0.1q-0.1 0-0.1 0 0 0 0 0 0 0 0 0 0 0 0 0 0 0 0 0 0 0-0.1 0 0 0.1 0 0.1 0 0 0 0 0 0 0 0 0 0 0 0 0 0 0 0-0.1 0.1-0.1 0.1c-0.6 0.1-1.1 0.3-1.7 0.6-0.7 0.2-1.3 0.7-1.8 1.2-0.5 0.5-0.9 1-1.2 1.5q-0.1 0.1-0.1 0.1 0 0 0 0 0 0 0 0 0 0 0 0 0 0-0.1 0c0-0.1 0-0.2 0-0.3q0 0 0 0l-0.2 0.1q0 0 0 0l-0.1 0.1q0 0 0 0 0 0 0 0 0 0 0 0 0 0 0 0 0-0.1 0-0.1c1.1-2 3.2-3.4 5.5-3.6q0.4-0.1 1.2 0z"/>
	<path id="Layer" class="s42" d="m8.2 1.2q0.8 0 1.6 0.2 0.2 0.1 0.5 0.2-0.1 0-0.3 0c-0.7-0.2-1.5-0.1-2.2 0h0.1q0 0 0 0 0 0 0 0 0-0.1 0-0.1 0 0 0 0-0.1 0 0 0 0 0 0 0-0.1 0-0.1 0c-0.3 0-0.7 0.1-1 0.2-0.6 0.3-1.3 0.6-1.8 1q-0.2 0.1-0.6 0.4-0.5 0.4-0.7 0.9c-0.1 0.2-0.2 0.3-0.3 0.4q0 0 0 0 0 0 0 0 0 0 0 0.1 0 0 0 0c0.1 0.1 0.2-0.2 0.3-0.3 0-0.1 0.1-0.1 0.2-0.2q0.1-0.1 0.1-0.2 0.1-0.1 0.2-0.2c0.1-0.1 0.2-0.2 0.3-0.3q0.1-0.1 0.2-0.2 0.2-0.1 0.4-0.3c-0.1 0.1-0.2 0.1-0.3 0.2q-0.1 0.2-0.3 0.3-0.2 0.2-0.3 0.4c-0.1 0.1-0.2 0.3-0.3 0.4q-0.1 0.1-0.1 0.2-0.1 0-0.2 0.1 0 0 0 0 0 0 0 0 0 0 0 0 0 0 0 0 0 0 0 0.1-0.2 0.2-0.3 0.5 0 0 0 0c0 0.1 0 0.2-0.1 0.2 0 0.1 0 0.1 0 0.2q0 0 0 0 0 0 0 0 0 0 0 0 0 0 0 0 0 0.1-0.1 0.1c0 0.1-0.1 0.3-0.1 0.4 0.1 0.1 0 0.1 0 0.2q0 0 0 0 0 0 0 0 0 0 0 0.1 0 0 0 0c-0.2 0.2-0.1 0.5-0.1 0.7-0.1 0.3 0 0.6-0.1 0.9q-0.1 0.2-0.1 0.3 0 0 0 0 0 0 0 0 0 0 0 0 0 0 0 0h-0.1q0 0 0 0 0 0-0.1 0 0 0 0 0 0 0 0 0-0.1 0-0.1 0.1 0 0 0 0v0.1q-0.1 0-0.1 0 0 0-0.1 0.1 0 0 0 0 0 0 0 0 0 0 0 0 0 0 0 0-0.1 0-0.1 0.1 0 0 0 0 0 0 0 0 0 0 0 0 0 0 0 0h-0.1q0 0 0 0 0 0 0 0 0 0 0 0 0 0 0 0c-0.1 0-0.1 0.1-0.1 0.1q-0.1 0.1-0.2 0.1 0 0 0 0 0 0 0 0 0 0-0.1 0 0 0 0 0 0 0.1 0 0.1-0.1 0-0.1 0 0 0 0 0 0 0 0 0 0 0 0 0 0-0.1 0-0.1 0 0 0 0 0 0 0 0-0.1 0-0.1 0 0 0 0 0c0-0.1-0.1-0.2-0.1-0.3q-0.1-0.2-0.2-0.4 0-0.1 0.1-0.2c0-0.1 0-0.2 0-0.3q0 0 0-0.1-0.1-0.2-0.1-0.5 0 0 0 0 0 0 0 0 0 0 0 0 0 0 0 0h-0.1q0 0 0 0 0 0 0 0 0 0 0 0-0.1 0-0.1 0h0.1q0 0 0 0 0 0.1 0 0.1 0 0-0.1 0 0 0 0 0l-0.1 0.1q0 0 0 0 0 0 0 0 0 0 0 0 0 0 0 0v0.4q0 0 0 0 0 0.1 0 0.1 0 0 0 0 0 0 0 0-0.1-0.1-0.2-0.2 0 0 0 0v0.1q0 0 0 0 0 0 0 0 0 0 0 0 0 0 0 0 0 0 0 0c0.1-0.9 0.4-1.9 0.9-2.7q0 0 0 0.1 0 0 0 0 0 0 0 0 0 0 0 0 0 0 0 0l0.1-0.1q0 0 0 0l0.2-0.1q0 0 0 0c0 0.1 0 0.2 0 0.3q0.1 0 0.1 0 0 0 0 0 0 0 0 0 0 0 0 0 0 0 0.1-0.1c0.3-0.5 0.7-1 1.2-1.5 0.5-0.5 1.1-1 1.8-1.2 0.6-0.3 1.1-0.5 1.7-0.6q0 0 0.1-0.1 0 0 0 0 0 0 0 0 0 0 0 0 0 0 0 0 0 0 0-0.1 0.1 0 0.1 0 0 0 0 0 0 0 0 0 0 0 0 0 0 0 0 0 0 0 0.1 0c0.2-0.1 0.3-0.1 0.5-0.1q0.3 0 0.6 0 0 0 0 0l0.1-0.1q0 0 0 0 0 0 0 0 0 0 0 0 0 0 0 0c-0.1 0 0 0 0.1 0q0 0 0 0z"/>
	<path id="Layer" class="s41" d="m7.8 1.6l-0.8 0.2q-0.1 0-0.1 0.1-0.5 0.1-1 0.4l-0.3 0.1q-0.1 0.1-0.2 0.2-0.1 0-0.1 0-0.1 0.1-0.2 0.2-0.2 0.2-0.4 0.3-0.1 0.1-0.2 0.2c-0.1 0.1-0.2 0.2-0.3 0.3q-0.1 0.1-0.2 0.2 0 0.1-0.1 0.2c-0.1 0.1-0.2 0.1-0.2 0.2-0.1 0.1-0.2 0.4-0.3 0.3q0 0 0 0 0-0.1 0-0.1 0 0 0 0 0 0 0 0c0.1-0.1 0.2-0.2 0.3-0.4q0.2-0.5 0.7-0.9 0.4-0.3 0.6-0.4c0.5-0.4 1.2-0.7 1.8-1 0.3-0.1 0.7-0.2 1-0.2q0 0 0.1 0 0 0 0 0-0.1 0 0 0 0 0 0 0 0 0 0 0.1 0 0 0 0 0 0 0 0z"/>
	<path id="Layer" fill-rule="evenodd" class="s43" d="m10.3 1.6c0.1 0.1-0.2 0.1-0.2 0.1 0-0.1-0.1-0.1-0.1-0.1-0.2 0-0.4 0-0.6 0.1-0.1 0-0.2 0-0.3 0-0.4 0.1-0.7 0.2-1 0.3-0.6 0.2-1.2 0.6-1.8 1q-0.1 0.1-0.1 0.1c-0.1 0-0.1 0.1-0.1 0.1q0 0-0.1 0-0.4 0.4-0.8 0.9-0.2 0.3-0.3 0.5 0 0.2-0.2 0.4-0.1 0.2-0.1 0.2 0 0.2-0.1 0.1 0 0 0 0 0 0 0 0 0 0 0 0 0 0 0 0 0-0.4 0.2-0.8 0 0 0-0.1 0.1-0.2 0.2-0.4 0.1-0.1 0.1-0.2c0.1-0.1 0.1-0.2 0.2-0.3 0.2-0.3 0.3-0.5 0.3-0.7q0 0 0 0 0 0 0 0 0 0 0 0 0.1 0 0.1 0c0-0.1 0.1-0.2 0.2-0.3q0.1 0 0.1-0.1 0.5-0.3 0.7-0.4 0.2-0.1 0.3-0.1 0.1 0 0.1-0.1l0.8-0.2c0.7-0.1 1.5-0.2 2.2 0q0.2 0 0.3 0zm-1.1 0q-0.9-0.1-1.7 0.2 0 0 0 0 0 0 0 0 0 0 0 0 0 0 0 0c-0.1 0.1 0.3 0 0.3 0q0.1 0 0.1 0 0 0 0 0 0 0 0 0 0 0 0 0c0.1 0 0.1-0.1 0.3-0.1 0.3-0.1 0.6-0.1 1-0.1q0 0 0 0z"/>
	<path id="Layer" class="s44" d="m9.2 1.6q0 0 0 0c-0.4 0-0.7 0-1 0.1-0.2 0-0.2 0.1-0.3 0.1q0 0 0 0 0 0 0 0 0 0 0 0 0 0-0.1 0c0 0-0.4 0.1-0.3 0q0 0 0 0 0 0 0 0 0 0 0 0 0 0 0 0 0.8-0.3 1.7-0.2z"/>
	<path id="Layer" class="s45" d="m10.1 1.7q-0.4 0-0.7 0c-0.3 0.1-0.5 0.1-0.7 0.2q-0.2 0-0.3 0.1c-0.9 0.3-1.7 0.8-2.3 1.5q-0.1-0.1 0-0.1 0 0 0 0 0 0 0 0 0 0 0 0 0 0 0 0 0-0.1-0.1-0.1l0.3-0.3c0.6-0.4 1.2-0.8 1.8-1 0.3-0.1 0.6-0.2 1-0.3 0.1 0 0.2 0 0.3 0 0.2-0.1 0.4-0.1 0.6-0.1 0 0 0.1 0 0.1 0.1z"/>
	<path id="Layer" class="s46" d="m7 1.8q0 0.1-0.1 0.1 0-0.1 0.1-0.1z"/>
	<path id="Layer" class="s47" d="m6.9 1.9q-0.1 0-0.3 0.1-0.2 0.1-0.7 0.4 0 0-0.1 0.1 0 0 0 0v-0.1q0 0 0.1 0 0 0 0 0 0 0 0 0 0 0 0 0 0 0 0 0v-0.1q0.1 0 0.1 0 0 0 0 0 0 0 0 0-0.1 0-0.2 0.1 0 0 0 0 0 0 0 0 0 0 0 0 0 0 0-0.1 0 0 0 0 0.1 0 0.1 0 0 0 0 0 0 0 0 0 0 0 0 0 0 0 0 0 0.5-0.3 1-0.4z"/>
	<path id="Layer" class="s46" d="m5.9 2.3l-0.2 0.2q0 0 0 0 0 0-0.1 0.1-0.1 0-0.1 0.1-0.1 0-0.2 0.1c-0.1 0.1-0.1 0.1-0.2 0.2q0 0.1-0.1 0.1-0.2 0.3-0.4 0.6-0.1 0-0.1 0.1-0.1 0.1-0.2 0.2c0 0 0 0-0.1 0.1q-0.1 0.2-0.2 0.3c-0.1 0.3-0.2 0.5-0.3 0.7q-0.2 0.9-0.2 1.7c0 0.7 0 1.5 0.3 2.1q0.1 0.1 0.2 0.3c0.2 0.3 0.5 0.7 0.9 0.8 0.1 0.1 0.2 0.1 0.4 0.1q0 0 0 0 0 0 0 0 0 0 0 0 0 0 0 0c0-0.1-0.1-0.2-0.2-0.4 0-0.1-0.1-0.2-0.2-0.3q0-0.1 0-0.1-0.1-0.1-0.1-0.1c0-0.2-0.1-0.4-0.1-0.6q0 0 0-0.1-0.1-0.3-0.1-0.6 0 0 0 0 0 0 0 0 0 0 0 0 0 0 0 0h-0.1q0 0 0 0 0 0 0 0 0 0 0 0 0 0 0 0c0-0.3-0.1-0.5-0.1-0.7q0-0.2 0-0.5c0-0.2 0.1-0.5 0.1-0.7q0-0.2 0.1-0.4 0.1-0.1 0.1-0.3 0-0.1 0-0.1 0.1 0 0.1-0.1 0 0 0 0 0 0 0 0 0 0 0 0 0 0 0 0c0.2-0.2 0.1-0.4 0.3-0.6q0 0 0-0.1 0 0 0 0 0.1-0.1 0.1-0.3 0.4-0.5 0.8-0.9 0.1 0 0.1 0c0 0 0-0.1 0.1-0.1q0 0 0.1-0.1l-0.3 0.3q-0.2 0.2-0.4 0.5-0.4 0.4-0.6 1 0 0.1-0.1 0.2-0.1 0.2-0.1 0.4 0 0 0 0 0 0 0 0 0 0 0 0 0 0 0 0 0 0.1-0.1 0.1 0 0 0 0 0 0 0 0 0 0 0 0 0 0 0 0 0 0.2 0 0.3-0.1 0.1-0.1 0.3 0 0.1 0 0.1c0 0.2-0.1 0.5-0.1 0.7q0 0.3 0.1 0.6c0 0.1 0 0.2 0 0.3 0 0.1 0 0.2 0 0.2q0.1 0.2 0.1 0.3 0 0.1 0.1 0.2 0 0.1 0 0.2 0 0 0 0c0 0.1 0.1 0.1 0.1 0.2q0 0.1 0.1 0.2c0 0.1 0 0.1 0.1 0.2q0 0 0 0 0 0 0 0 0 0 0 0 0 0 0 0c0 0.1 0 0.1 0 0.1q0.3 0.6 0.6 1 0.1 0.1 0.5 0.4 0 0.1-0.1 0.1c0 0.1-0.4 0.1-0.4 0.1-0.3 0-0.5 0-0.8-0.2-0.3-0.1-0.5-0.2-0.7-0.4q-0.2-0.3-0.2-0.3-0.2-0.2-0.3-0.5c-0.2-0.3-0.3-0.7-0.4-1.1q0-0.2 0-0.5c-0.1-0.4-0.1-0.8-0.1-1.2q0.1-0.1 0.1-0.3 0-0.1 0-0.2c0-0.1 0-0.2 0-0.3q0.1-0.2 0.2-0.5 0 0 0 0 0.1-0.4 0.3-0.8c0 0 0-0.1 0.1-0.2 0 0 0-0.1 0.1-0.2 0.1-0.1 0.1-0.2 0.2-0.3q0.1-0.1 0.1-0.1 0.1-0.2 0.3-0.4 0.2-0.3 0.4-0.5 0 0 0 0 0 0 0 0 0 0 0 0 0 0 0 0 0.1 0 0.1 0 0 0 0 0 0 0 0 0 0 0 0 0 0 0 0 0l0.2-0.2v-0.1q0 0 0 0 0 0 0 0 0 0 0 0 0 0 0 0 0 0 0 0 0 0 0.1 0l0.1-0.1q0.2-0.1 0.3-0.2 0.1-0.1 0.2-0.1 0 0 0 0 0 0 0 0 0 0-0.1 0z"/>
	<path id="Layer" class="s48" d="m5.9 2.3q0 0 0 0 0 0 0 0 0 0 0 0 0 0 0 0 0 0-0.1 0 0 0 0 0 0 0.1 0 0.1 0 0 0 0 0 0 0 0 0 0 0 0-0.1 0.1-0.3 0.2l0.1-0.2z"/>
	<path id="Layer" class="s45" d="m5.9 2.3v0.1q0 0 0 0 0 0 0 0 0 0 0 0 0 0 0 0-0.1 0-0.1 0l-0.2 0.2q0.1-0.1 0.1-0.1 0 0 0 0z"/>
	<path id="Layer" fill-rule="evenodd" class="s49" d="m5.9 2.4q0 0.1-0.1 0.1c-0.1 0.1-0.2 0.2-0.2 0.3q0 0-0.1 0 0 0 0 0 0 0 0 0 0 0 0 0c0 0.2-0.1 0.4-0.3 0.7-0.1 0.1-0.1 0.2-0.2 0.3q0 0.1-0.1 0.2-0.1 0.2-0.2 0.4 0 0.1 0 0.1-0.2 0.4-0.2 0.8 0 0 0 0 0 0 0 0 0 0 0 0 0 0 0 0 0.1 0.1 0.1-0.1 0 0 0.1-0.2 0.2-0.2 0.2-0.4 0.1-0.2 0.3-0.5 0 0.2-0.1 0.3 0 0 0 0 0 0.1 0 0.1c-0.2 0.2-0.1 0.4-0.3 0.6q0 0 0 0 0 0 0 0 0 0 0 0 0 0 0 0 0 0.1-0.1 0.1 0 0 0 0.1 0 0.2-0.1 0.3-0.1 0.2-0.1 0.4c0 0.2-0.1 0.5-0.1 0.7q0 0.3 0 0.5c0 0.2 0.1 0.4 0.1 0.7q0 0 0 0 0 0 0 0 0 0 0 0 0 0 0 0h0.1q0 0 0 0 0 0 0 0 0 0 0 0 0 0 0 0 0 0.3 0.1 0.6 0 0.1 0 0.1c0 0.2 0.1 0.4 0.1 0.6q0 0 0.1 0.1 0 0 0 0.1c0.1 0.1 0.2 0.2 0.2 0.3 0.1 0.2 0.2 0.3 0.2 0.4q0 0 0 0 0 0 0 0 0 0 0 0 0 0 0 0c-0.2 0-0.3 0-0.4-0.1-0.4-0.1-0.7-0.5-0.9-0.8q-0.1-0.2-0.2-0.3c-0.3-0.6-0.3-1.4-0.3-2.1q0-0.8 0.2-1.7c0.1-0.2 0.2-0.4 0.3-0.7q0.1-0.1 0.2-0.3c0.1-0.1 0.1-0.1 0.1-0.1q0.1-0.1 0.2-0.2 0-0.1 0.1-0.1 0.2-0.3 0.4-0.6 0.1 0 0.1-0.1c0.1-0.1 0.1-0.1 0.2-0.2q0.1-0.1 0.2-0.1 0-0.1 0.1-0.1-0.2 0.1-0.3 0.3-0.1 0 0 0 0.1-0.1 0.2-0.2c0 0 0.1-0.1 0.1-0.1l0.2-0.2v0.1q0 0 0 0 0.1-0.1 0.1-0.1zm-0.8 0.6q0 0 0 0 0 0.1 0 0 0.1 0 0.1 0 0 0 0 0 0 0 0 0 0 0-0.1 0 0 0 0 0 0 0 0 0 0 0 0 0zm-0.2 0.2l-0.1 0.2q0 0 0 0 0.1-0.1 0.1-0.2 0.1 0 0.2-0.1 0 0 0 0zm-0.3 0.3q-0.1 0.1-0.1 0.2 0 0 0 0 0.1-0.1 0.1-0.2 0.1 0 0.1-0.1 0 0 0 0-0.1 0-0.1 0.1z"/>
	<path id="Layer" class="s50" d="m5.6 2.4l-0.1 0.2q-0.1 0-0.1 0.1-0.1 0-0.1 0-0.2 0.1-0.3 0.3-0.4 0.3-0.7 0.7c-0.1 0.1-0.2 0.2-0.2 0.3q-0.1 0.1-0.2 0.2-0.4 0.5-0.6 1 0 0.1 0 0.3c-0.1 0.2-0.1 0.4-0.1 0.7q0 0 0 0-0.1 0.1-0.1 0.3c0 0.1 0 0.2 0 0.4q0 0.1 0 0.2c0 0.1-0.1 0.2-0.1 0.3q0 0.1 0 0.2 0 0.4 0.1 0.8c0 0 0 0.3-0.1 0.3q0 0 0 0 0 0 0 0 0 0 0 0 0 0 0 0 0 0.3 0 0.4 0 0.1 0.2 0.6 0 0 0 0.1 0 0 0 0 0 0 0 0 0 0.1 0 0.1 0 0 0 0 0 0-0.1-0.1 0 0-0.1-0.1 0 0 0 0 0 0 0 0 0 0 0 0 0 0 0 0l-0.1 0.1q0 0 0 0 0 0 0 0 0 0 0 0 0 0 0 0-0.1 0-0.1 0 0 0.1 0 0.1c-0.1 0-0.2 0.1-0.2 0.1q-0.1 0-0.2 0.1 0 0 0 0 0 0 0 0 0 0 0 0 0 0 0 0l-0.1-0.1q0 0 0 0 0 0 0 0 0 0 0 0 0 0 0 0-0.1 0.1-0.1 0.1 0 0 0 0 0 0 0 0 0 0 0 0 0 0 0 0l-0.1 0.2q0 0 0 0 0 0 0 0 0 0 0 0 0 0 0 0c-0.1 0-0.1 0-0.2 0.1q0 0 0 0 0 0 0 0 0 0 0 0 0 0 0 0c-0.1 0.2-0.2-0.1-0.3-0.2-0.1-0.1-0.5-0.8-0.6-0.8q0 0 0 0-0.1 0-0.1 0 0 0 0 0 0 0 0 0 0-0.1-0.1-0.2 0 0 0 0 0 0 0 0 0 0 0 0-0.1 0-0.1 0 0-0.1 0 0-0.2-0.9-0.1-1.7 0 0 0 0 0 0 0 0 0 0 0 0 0 0 0 0 0 0 0 0v-0.1q0 0 0 0 0.1 0.1 0.2 0.2 0 0 0 0 0 0 0 0 0 0 0-0.1 0 0 0 0v-0.4q0 0 0 0 0 0 0 0 0 0 0 0 0 0 0 0l0.1-0.1q0 0 0 0 0.1 0 0.1 0 0 0 0-0.1 0 0 0 0h-0.1q0 0 0.1 0 0 0 0 0 0 0 0 0 0 0 0 0h0.1q0 0 0 0 0 0 0 0 0 0 0 0 0 0 0 0 0 0.3 0.1 0.5 0 0.1 0 0.1c0 0.1 0 0.2 0 0.3q-0.1 0.1-0.1 0.2 0.1 0.2 0.2 0.4c0 0.1 0.1 0.2 0.1 0.3q0 0 0 0 0 0 0.1 0 0 0 0 0 0 0 0 0 0 0 0 0.1 0 0 0 0 0 0 0 0 0 0 0 0 0 0 0.1 0 0 0 0-0.1 0 0 0 0 0.1 0 0.1 0 0 0 0 0 0 0 0 0 0.1 0 0.2-0.1c0 0 0-0.1 0.1-0.1q0 0 0 0 0 0 0 0 0 0 0 0 0 0 0 0h0.1q0 0 0 0 0 0 0 0 0 0 0 0 0 0 0 0 0-0.1 0.1-0.1 0 0 0 0 0 0 0 0 0 0 0 0 0 0 0 0 0.1-0.1 0.1-0.1 0 0 0.1 0v-0.1q0 0 0 0 0-0.1 0.1-0.1 0 0 0 0 0 0 0 0 0.1 0 0.1 0 0 0 0 0h0.1q0 0 0 0 0 0 0 0 0 0 0 0 0 0 0 0 0-0.1 0.1-0.3c0.1-0.3 0-0.6 0.1-0.9 0-0.2-0.1-0.5 0.1-0.7q0 0 0 0 0-0.1 0-0.1 0 0 0 0 0 0 0 0c0-0.1 0.1-0.1 0-0.2 0-0.1 0.1-0.3 0.1-0.4q0.1 0 0.1-0.1 0 0 0 0 0 0 0 0 0 0 0 0 0 0 0 0c0-0.1 0-0.1 0-0.2 0.1 0 0.1-0.1 0.1-0.2q0 0 0 0 0.1-0.3 0.3-0.5 0-0.1 0-0.1 0 0 0 0 0 0 0 0 0 0 0 0 0 0 0 0 0.1-0.1 0.2-0.1 0-0.1 0.1-0.2c0.1-0.1 0.2-0.3 0.3-0.4q0.1-0.2 0.3-0.4 0.2-0.1 0.3-0.3c0.1-0.1 0.2-0.1 0.3-0.2q0.1-0.1 0.2-0.2 0 0 0.1 0 0.1-0.1 0.2-0.2z"/>
	<path id="Layer" class="s48" d="m5.5 2.6l-0.1 0.1q0-0.1 0.1-0.1z"/>
	<path id="Layer" class="s45" d="m5.6 2.6c0 0-0.1 0.1-0.1 0.1q-0.1 0.1-0.2 0.2-0.1 0 0 0 0.1-0.2 0.3-0.3z"/>
	<path id="Layer" class="s48" d="m5.3 2.7q0 0 0 0 0 0 0 0 0 0 0 0 0 0 0 0 0 0 0 0v0.1q-0.1 0-0.2 0.1c0 0-0.1 0.2-0.2 0.2q0 0 0 0 0 0 0 0 0 0 0 0 0 0 0 0 0 0-0.1 0.1 0 0 0 0 0 0 0 0 0 0 0 0 0 0 0 0c0 0.1-0.1 0.1-0.1 0.1q-0.2 0.2-0.3 0.4-0.3 0.3-0.5 0.7-0.1 0.1-0.2 0.3 0 0 0 0.1-0.2 0.3-0.3 0.7 0 0.1-0.1 0.2 0 0 0 0 0 0 0 0.1 0 0 0 0 0 0 0 0c0 0 0 0.1 0 0.1q0 0.2-0.1 0.3 0 0.2 0 0.3 0 0.2 0 0.4-0.1 0.5-0.1 1.1 0.1 0.1 0.1 0.2 0 0 0 0 0 0 0 0 0 0 0 0 0 0 0 0 0 0.1 0 0.1c0 0.2 0.1 0.6 0.2 0.9q0 0.1 0 0.2 0.1 0.2 0.2 0.4 0 0.1 0.3 0.6 0.1 0.2 0.2 0.3c0.1 0.1 0.2 0.2 0.2 0.3q0 0 0 0 0 0 0 0 0 0 0 0 0 0 0.1 0c0.1 0.1 0.2 0.2 0.3 0.3 0 0 0 0 0 0 0.4 0.3 0.7 0.5 1.3 0.5 0.1 0 0.3-0.1 0.4-0.2 0 0 0.3-0.2 0.3-0.3q0 0 0 0 0 0 0 0 0 0 0 0 0 0 0 0 0 0 0 0 0 0 0 0 0 0 0 0 0 0 0 0c0-0.1 0-0.1-0.1-0.1q-0.2-0.2-0.4-0.4-0.4-0.3-0.5-0.4-0.3-0.4-0.6-1c0 0 0 0 0-0.1q0 0 0 0 0 0 0 0 0 0 0 0 0 0 0 0c-0.1-0.1-0.1-0.1-0.1-0.2q-0.1-0.1-0.1-0.2c0-0.1-0.1-0.1-0.1-0.2q0 0 0 0 0-0.1 0-0.2-0.1-0.1-0.1-0.2 0-0.1-0.1-0.3c0 0 0-0.1 0-0.2 0-0.1 0-0.2 0-0.3v0.2q0 0 0 0 0 0 0 0 0 0 0 0 0 0 0 0 0.1 0 0.1 0 0-0.3 0-0.4 0.1 0.6 0.2 1.1c0.3 1.2 1.1 2.3 2.2 2.9q-0.1 0.1 0 0.2 0.1 0 0.3 0.2 0.1 0 0.1 0 0 0 0 0 0 0 0 0 0 0 0 0 0.1 0 0.1 0.1 0 0 0 0 0 0 0 0 0 0 0 0 0 0 0 0c0.1 0.1 0 0.2-0.1 0.3q-0.1 0.1-0.1 0.2-0.2 0.3-0.6 0.3c-0.4 0-0.8-0.1-1.2-0.3q-0.1-0.1-0.3-0.2c-0.2-0.1-0.5-0.3-0.6-0.5-0.1 0-0.1-0.1-0.2-0.1 0-0.1-0.1-0.1-0.1-0.2 0 0-0.3-0.3-0.2-0.1-0.1 0-0.1-0.1-0.3-0.2q0 0 0 0 0 0 0 0 0 0 0 0 0 0 0 0 0 0.1-0.1 0.1c-0.1-0.1-0.2-0.3-0.3-0.1-0.1 0.1-0.3 0.2-0.4 0.3q-0.1 0-0.2 0c0 0-0.1 0.1-0.2 0.1-0.1 0-0.1 0.2-0.2 0.1-0.2-0.2-0.4-0.3-0.6-0.6-0.2-0.1-0.3-0.3-0.4-0.3-0.1-0.2-0.3-0.4-0.5-0.5q0 0 0 0 0 0 0 0 0 0 0 0 0 0 0 0 0 0 0 0 0 0 0 0 0 0 0 0 0 0 0 0 0 0.1 0 0.1 0 0 0-0.1l-0.2-0.3q0-0.3-0.1-0.6 0-0.1 0 0 0 0 0.1 0 0 0 0 0 0 0 0 0 0 0 0 0 0.1 0.1 0.1 0.2 0 0 0 0 0 0 0 0 0 0 0.1 0 0 0 0 0c0.1 0 0.5 0.7 0.6 0.8 0.1 0.1 0.2 0.4 0.3 0.2q0 0 0 0 0 0 0 0 0 0 0 0 0 0 0 0c0.1-0.1 0.1-0.1 0.2-0.1q0 0 0 0 0 0 0 0 0 0 0 0 0 0 0 0l0.1-0.2q0 0 0 0 0 0 0 0 0 0 0 0 0 0 0 0 0 0 0.1-0.1 0 0 0 0 0 0 0 0 0 0 0 0 0 0 0 0l0.1 0.1q0 0 0 0 0 0 0 0 0 0 0 0 0 0 0 0 0.1-0.1 0.2-0.1c0 0 0.1-0.1 0.2-0.1q0 0 0-0.1 0 0 0.1 0 0 0 0 0 0 0 0 0 0 0 0 0 0 0 0 0l0.1-0.1q0 0 0 0 0 0 0 0 0 0 0 0 0 0 0 0 0.1 0.1 0.1 0.1 0.1 0.1 0.1 0.1 0 0 0 0 0 0 0-0.1 0 0 0 0 0 0 0 0 0-0.1 0-0.1-0.2-0.5-0.2-0.6 0-0.1 0-0.4 0 0 0 0 0 0 0 0 0 0 0 0 0 0 0 0c0.1 0 0.1-0.3 0.1-0.3q-0.1-0.4-0.1-0.8 0-0.1 0-0.2c0-0.1 0.1-0.2 0.1-0.3q0-0.1 0-0.2c0-0.2 0-0.3 0-0.4q0-0.2 0.1-0.3 0 0 0 0c0-0.3 0-0.5 0.1-0.7q0-0.2 0-0.3 0.2-0.5 0.6-1 0.1-0.1 0.2-0.2c0-0.1 0.1-0.2 0.2-0.3q0.3-0.4 0.7-0.7 0.1-0.2 0.3-0.3z"/>
	<path id="Layer" class="s44" d="m5.3 2.8l-0.2 0.2q0 0 0 0 0 0 0 0 0 0 0 0 0 0 0 0 0 0-0.1 0 0 0 0 0 0 0 0 0 0 0 0 0 0 0 0 0-0.2 0.2-0.4 0.5-0.2 0.2-0.3 0.4 0 0-0.1 0.1c-0.1 0.1-0.1 0.2-0.2 0.3-0.1 0.1-0.1 0.2-0.1 0.2-0.1 0.1-0.1 0.2-0.1 0.2q-0.2 0.4-0.3 0.8 0 0 0 0-0.1 0.3-0.2 0.5c0 0.1 0 0.2 0 0.3q0 0.1 0 0.2 0 0.2-0.1 0.3c0 0.4 0 0.8 0.1 1.2q0 0.3 0 0.5c0.1 0.4 0.2 0.8 0.4 1.1q0.1 0.3 0.3 0.5 0 0 0.2 0.3c0.2 0.2 0.4 0.3 0.7 0.4 0.3 0.2 0.5 0.2 0.8 0.2 0 0 0.4 0 0.4-0.1q0.1 0 0.1-0.1 0.2 0.2 0.4 0.4c0.1 0 0.1 0 0.1 0.1q0 0 0 0 0 0 0 0 0 0 0 0 0 0 0 0 0 0 0 0 0 0 0 0 0 0 0 0 0 0 0 0c0 0.1-0.3 0.3-0.3 0.3-0.1 0.1-0.3 0.2-0.4 0.2-0.6 0-0.9-0.2-1.3-0.5 0 0 0 0 0 0-0.1-0.1-0.2-0.2-0.3-0.3q-0.1 0-0.1 0 0 0 0 0 0 0 0 0 0 0 0 0c0-0.1-0.1-0.2-0.2-0.3q-0.1-0.1-0.2-0.3-0.3-0.5-0.3-0.6-0.1-0.2-0.2-0.4 0-0.1 0-0.2c-0.1-0.3-0.2-0.7-0.2-0.9q0 0 0-0.1 0 0 0 0 0 0 0 0 0 0 0 0 0 0 0 0 0-0.1-0.1-0.2 0-0.6 0.1-1.1 0-0.2 0-0.4 0-0.1 0-0.3 0.1-0.1 0.1-0.3c0 0 0-0.1 0-0.1q0 0 0 0 0 0 0 0 0-0.1 0-0.1 0 0 0 0 0.1-0.1 0.1-0.2 0.1-0.4 0.3-0.7 0-0.1 0-0.1 0.1-0.2 0.2-0.3 0.2-0.4 0.5-0.7 0.1-0.2 0.3-0.4c0 0 0.1 0 0.1-0.1q0 0 0 0 0 0 0 0 0 0 0 0 0 0 0 0 0.1-0.1 0.1-0.1 0 0 0 0 0 0 0 0 0 0 0 0 0 0 0 0c0.1 0 0.2-0.2 0.2-0.2q0.1-0.1 0.2-0.1z"/>
	<path id="Layer" class="s45" d="m5.2 3q0 0 0 0 0 0 0 0 0 0-0.1 0 0 0.1 0 0 0 0 0 0 0 0 0 0 0 0 0 0 0 0 0 0 0.1 0 0.1 0z"/>
	<path id="Layer" class="s45" d="m4.9 3.2l0.2-0.1q0 0 0 0-0.1 0.1-0.2 0.1z"/>
	<path id="Layer" class="s45" d="m4.9 3.2q0 0.1-0.1 0.2 0 0 0 0z"/>
	<path id="Layer" class="s42" d="m6 3.3q0.1 0 0.1 0.1 0 0 0 0 0 0 0 0 0 0 0 0 0 0 0 0-0.1 0 0 0.1-1.1 1.2-1.3 2.8-0.1 0.2-0.1 0.3 0 0.4 0 0.7 0 0.1 0 0.4 0 0-0.1 0 0 0 0 0 0 0 0 0 0 0 0 0 0 0 0 0v-0.2q-0.1-0.3-0.1-0.6c0-0.2 0.1-0.5 0.1-0.7q0 0 0-0.1 0-0.2 0.1-0.3 0-0.1 0-0.3 0 0 0 0 0 0 0 0 0 0 0 0 0 0 0 0 0.1 0 0.1-0.1 0 0 0 0 0 0 0 0 0 0 0 0 0 0 0 0 0-0.2 0.1-0.4 0.1-0.1 0.1-0.2 0.2-0.6 0.6-1 0.2-0.3 0.4-0.5z"/>
	<path id="Layer" class="s45" d="m4.7 3.6q0-0.1 0.1-0.2 0 0 0 0-0.1 0.1-0.1 0.2z"/>
	<path id="Layer" class="s45" d="m4.7 3.6q-0.1 0-0.1 0.1 0 0 0 0 0-0.1 0.1-0.1z"/>
	<path id="Layer" class="s51" d="m15.3 10.9q0-0.1 0-0.2 0 0 0 0l-0.4 0.4q-0.1 0.1-0.2 0.2-0.6 0.6-1.3 1.2-0.5 0.3-1 0.6 0 0-0.1 0c-0.1 0.1-0.2 0.1-0.3 0.1q0 0 0 0 0 0 0-0.1 0 0 0 0 0 0 0 0 0 0 0 0 0 0 0 0c0.1 0 0.2 0 0.2-0.1q0 0 0 0 0 0 0 0 0 0 0 0 0 0 0 0l0.1-0.1q1.2-0.6 2.1-1.5 0.5-0.5 0.9-1c0.1 0 0.5-0.6 0.3-0.6q0 0 0.1 0 0-0.1 0 0 0 0.2-0.1 0.3-0.1 0.4-0.3 0.8z"/>
	<path id="Layer" fill-rule="evenodd" class="s44" d="m4.2 11.2c0.2 0.3 0.4 0.6 0.7 0.8 0 0 0.5 0.4 0.5 0.4q0 0 0 0 0 0 0 0 0 0 0 0 0 0 0 0 0.4 0.3 0.7 0.5 0.1 0 0.2 0.1c0 0 0.1 0 0.1 0q0 0 0 0.1 0 0 0 0 0 0 0.1 0 0 0 0 0 0.2 0.1 0.5 0.2 0.2 0 0.4 0.1 0.1 0 0.2 0.1 0.2 0 0.3 0c0.1 0.1 0.3 0 0.4 0.1q0.1 0 0.4 0 0 0 0.1 0 0.4 0 0.8 0 0.1 0 0.3 0h0.1q0.2-0.1 0.4-0.1h0.3-0.5q0 0 0 0 0.3 0 0 0.1-0.1 0-0.1 0h-0.1c0 0-0.3 0-0.4 0.1q0 0 0 0 0 0 0 0 0 0 0 0 0 0 0 0c-0.5 0-0.9 0-1.4 0q-0.3-0.1-0.6-0.1-0.3-0.1-0.6-0.2c-0.1 0-0.3-0.1-0.4-0.1q-0.1-0.1-0.3-0.1-0.1 0-0.2-0.1-0.1 0-0.1 0c-0.1-0.1-0.3-0.2-0.4-0.1q0 0 0 0 0 0 0 0 0 0 0 0 0 0 0 0c-0.1 0.1-0.4 0.2-0.4 0.3q0.1 0.2 0.2 0.2 0.1 0.2 0.2 0.3 0 0 0 0 0 0 0 0 0 0 0 0 0 0 0 0c0.1 0.1 0.2 0.2 0.2 0.2 0.2 0.1 0.3 0.1 0.4 0.1q0.2 0.1 0.4 0.2c0.2 0 0.5 0.1 0.7 0.1 0.7 0.1 1.1 0.1 1.8 0q0.4 0 0.9-0.2c0.1 0 0.2 0 0.3 0q0.2-0.1 0.4-0.2 0.1 0 0.5-0.1 0.1 0 0.2-0.1 0 0 0 0 0.1 0 0.1 0 0 0 0 0 0 0 0 0 0 0 0 0 0 0 0 0 0.1 0.1 0 0.1-0.2 0.2-0.5 0.2-0.1 0-0.1 0.1-0.1 0-0.2 0-0.3 0.2-0.7 0.3-0.1 0-0.1 0c-0.1 0-0.1 0-0.2 0.1q0 0 0 0 0 0 0 0 0 0 0 0 0 0 0 0-0.2 0-0.3 0c0 0-0.1 0-0.2 0q-0.1 0.1-0.3 0.1c-0.1 0-0.3 0-0.3 0q0 0.1 0 0.1 0 0 0 0 0 0 0 0 0 0 0.1 0 0.1 0 0.3 0c0.1-0.1 0.3-0.1 0.5-0.1q0.8-0.1 1.5-0.4c1-0.4 1.8-0.8 2.6-1.5q0.6-0.4 1-1.1 0.2-0.3 0.5-0.7 0 0 0 0 0 0 0.1 0 0 0 0 0 0 0 0 0c0 0.1-0.1 0.1-0.1 0.3-0.9 1.5-2.3 2.4-3.8 3-0.7 0.3-1.4 0.5-2.1 0.5-0.8 0.1-1.6 0.1-2.3 0-0.2 0-0.6 0-0.7-0.1-0.6-0.1-1.4-0.3-2-0.7-1.6-0.9-2.8-2.4-3.4-4.2l0.2 0.3q0 0.1 0 0.1 0 0 0-0.1 0 0 0 0 0 0 0 0 0 0 0 0 0 0 0 0 0 0 0 0 0 0 0 0 0 0 0 0 0 0 0 0c0.2 0.1 0.4 0.3 0.5 0.5 0.1 0 0.2 0.2 0.4 0.3 0.2 0.3 0.4 0.4 0.6 0.6 0.1 0.1 0.1-0.1 0.2-0.1 0.1 0 0.2-0.1 0.2-0.1q0.1 0 0.2 0c0.1-0.1 0.3-0.2 0.4-0.3 0.1-0.2 0.2 0 0.3 0.1q0.1 0 0.1-0.1 0 0 0 0 0 0 0 0 0 0 0 0 0 0 0 0c0.2 0.1 0.2 0.2 0.3 0.2zm2.9 3.5q0.6 0 1.2 0 0.1 0 0.2 0c0.1 0 0.1-0.1 0-0.1-0.5 0-0.9 0-1.4-0.1q-0.1 0-0.2 0-0.3-0.1-0.6-0.2-0.1 0-0.1 0-0.4-0.1-0.7-0.2-0.5-0.2-0.9-0.4-0.1 0-0.3-0.1-0.1-0.1-0.1-0.1c-0.1 0-0.5-0.2-0.5-0.2q0 0 0 0 0 0 0 0 0 0 0 0 0 0 0 0v0.1q0 0 0 0 0 0 0 0.1 0 0 0 0 0 0 0 0 0 0 0 0 0 0 0 0 0 0 0 0 0 0 0 0 0 0 0.1 0 0 0 0 0 0 0.1 0.1 0.1 0.1 0.1 0.3 0.2 0.1 0.1 0.2 0.1 0.5 0.3 1 0.5c0.2 0 0.3 0 0.4 0.1q0.1 0 0.1 0 0.2 0.1 0.4 0.1 0.1 0 0.2 0 0.3 0.1 0.6 0.1z"/>
	<path id="Layer" class="s41" d="m15.6 9.8c0.2 0-0.2 0.6-0.3 0.6q-0.4 0.5-0.9 1-0.9 0.9-2.1 1.5-0.1 0-0.2 0.1 0 0 0 0 0 0-0.1 0.1 0 0 0 0 0 0 0 0 0 0 0 0 0 0 0 0c-0.1 0-0.2 0-0.3 0.1h-0.1q0.1-0.1 0.1-0.1c0 0 0 0 0 0-0.1 0-0.2 0-0.3 0-0.1 0.1-0.3 0.1-0.4 0.1-0.1 0-0.2 0.1-0.3 0.1q-0.2 0-0.3 0-0.5 0.1-1 0.1c-0.1-0.1-0.4-0.1-0.4-0.1q0 0 0 0 0 0 0 0 0 0 0-0.1 0 0 0 0c0.1 0 0.1 0 0.2 0q0.3 0 0.7-0.1c0.5-0.1 1.1-0.1 1.7-0.3q0.5-0.1 1.4-0.5 0.2-0.2 0.6-0.4 0 0 0 0 0 0 0-0.1 0 0 0 0 0 0 0 0c0.2 0 0.2-0.1 0.3-0.1q0.6-0.4 1-0.9 0.1-0.1 0-0.1 0 0 0 0-0.1 0-0.1 0 0 0 0 0 0 0 0 0-0.4 0.4-1 0.7 0 0 0 0 0 0 0 0 0 0 0 0 0 0 0 0v0.1q0 0 0 0 0 0 0 0 0 0 0 0 0 0 0 0c-0.4 0.3-0.9 0.5-1.4 0.7q-0.2 0.1-0.6 0.1c-0.4 0.1-0.8 0.2-1.2 0.2q-0.8 0-1.5-0.2 0 0 0 0 0 0 0 0 0 0 0 0 0 0 0 0c0.1-0.1-0.2-0.1-0.3-0.1q0 0 0 0c-0.1-0.1-0.2-0.1-0.3-0.1q0 0 0 0 0 0 0 0 0 0 0 0 0 0 0 0v-0.1q0 0 0 0 0 0 0 0 0 0 0 0 0 0 0 0 0.1 0 0 0 0-0.1 0-0.1 0 0 0 0 0 0 0 0 0 0 0 0 0 0 0 0c0.8 0.2 1.7 0.2 2.5 0.1 0.5 0 0.9-0.1 1.3-0.2q0.2 0 0.4-0.1 1.2-0.4 2.2-1.2c0.1-0.1 0.3-0.4 0.6-0.5q0-0.1 0.1-0.2z"/>
	<path id="Layer" class="s52" d="m11.7 13.1q-0.2 0-0.3 0.1-0.1 0-0.3 0.1 0 0-0.1 0-0.6 0.2-1.2 0.2 0 0 0 0 0 0 0 0 0 0 0 0 0 0-0.1 0 0 0 0 0-0.7 0.1-1.4 0l-0.5-0.1h-0.5q0-0.1 0 0 0.3 0 0.6 0.1c0.3 0.1 0.6 0.1 0.8 0.1q0 0 0 0 0 0 0 0 0 0 0 0 0 0 0 0 0 0 0 0 0.7 0 1.2-0.1 0.2 0 0.3 0 0.1 0 0 0l-0.2 0.1h-0.1-0.3q-0.4 0-0.8 0-0.1 0-0.1 0-0.3 0-0.4 0c-0.1-0.1-0.3 0-0.4-0.1q-0.1 0-0.3 0-0.1-0.1-0.2-0.1-0.2-0.1-0.4-0.1-0.3-0.1-0.5-0.2 0 0 0 0-0.1 0-0.1 0 0 0 0 0 0-0.1 0-0.1c0 0-0.1 0-0.1 0q-0.1-0.1-0.2-0.1-0.3-0.2-0.7-0.5 0 0 0 0 0 0 0 0 0 0 0 0 0 0 0 0c0 0-0.5-0.4-0.5-0.4-0.3-0.2-0.5-0.5-0.7-0.8-0.1-0.2 0.2 0.1 0.2 0.1 0 0.1 0.1 0.1 0.1 0.2 0.1 0 0.1 0.1 0.2 0.1 0.1 0.2 0.4 0.4 0.6 0.5q0.2 0.1 0.3 0.2c0.4 0.2 0.8 0.3 1.2 0.3q0.4 0 0.6-0.3 0-0.1 0.1-0.2c0.1-0.1 0.2-0.2 0.1-0.3q0 0 0 0 0 0 0 0 0 0 0 0 0 0 0 0 0-0.1-0.1-0.1 0 0 0 0 0 0 0 0 0 0 0 0 0 0-0.1 0-0.2-0.2-0.3-0.2-0.1-0.1 0-0.2 0.6 0.4 1.4 0.6 0 0 0 0 0 0 0 0 0 0 0 0 0 0 0 0 0 0 0 0.1 0.1 0 0 0 0 0 0 0 0 0 0 0 0 0 0 0 0 0 0 0v0.1q0 0 0 0 0 0 0 0 0 0 0 0 0 0 0 0c0.1 0 0.2 0 0.3 0.1q0 0 0 0c0.1 0 0.4 0 0.3 0.1q0 0 0 0 0 0 0 0 0 0 0 0 0 0 0 0 0.7 0.2 1.5 0.2c0.4 0 0.8-0.1 1.2-0.2q0.4 0 0.6-0.1c0.5-0.2 1-0.4 1.4-0.7q0 0 0 0 0 0 0 0 0 0 0 0 0 0 0 0v-0.1q0 0 0 0 0 0 0 0 0 0 0 0 0 0 0 0 0.6-0.3 1-0.7 0 0 0 0 0 0 0 0 0 0 0.1 0 0 0 0 0 0.1 0 0 0.1-0.4 0.5-1 0.9c-0.1 0-0.1 0.1-0.3 0.1q0 0 0 0 0 0 0 0 0 0.1 0 0.1 0 0 0 0-0.4 0.2-0.6 0.4-0.9 0.4-1.4 0.5c-0.6 0.2-1.2 0.2-1.7 0.3q-0.4 0.1-0.7 0.1c-0.1 0-0.1 0-0.2 0q0 0 0 0 0 0.1 0 0.1 0 0 0 0 0 0 0 0c0 0 0.3 0 0.4 0.1q0.5 0 1-0.1 0.1 0 0.3 0c0.1 0 0.2-0.1 0.3-0.1 0.1 0 0.3 0 0.4-0.1 0.1 0 0.2 0 0.3 0z"/>
	<path id="Layer" class="s45" d="m15.3 10.9l-0.2 0.4c0-0.2 0.1-0.2 0.1-0.3q0 0 0 0 0 0 0 0-0.1 0-0.1 0 0 0 0 0-0.3 0.4-0.5 0.7-0.4 0.7-1 1.1 0 0 0 0 0 0 0 0 0 0 0 0 0-0.1 0-0.1 0.2-0.1 0.4-0.3 0.3-0.3 0.5-0.6 0.1-0.2 0.3-0.4c0-0.1 0.1-0.2 0.1-0.3l0.4-0.4q0 0 0 0 0 0.1 0 0.2z"/>
	<path id="Layer" class="s43" d="m14.9 11.1c0 0.1-0.1 0.2-0.1 0.3q-0.2 0.2-0.3 0.4-0.2 0.3-0.5 0.6-0.2 0.2-0.4 0.3 0 0 0 0.1 0 0 0 0 0 0 0 0 0 0 0 0c-0.8 0.7-1.6 1.1-2.6 1.5-0.1 0 0-0.1 0-0.1 0.1-0.1 0.3-0.1 0.3-0.2 0.2 0 0.3-0.1 0.4-0.2q0 0 0.1 0 0 0 0 0 0 0-0.1 0 0 0 0 0v0.1q0 0 0 0c0.3-0.2 0.5-0.3 0.8-0.5q0-0.1 0.1-0.1 0-0.1 0-0.1 0 0 0 0 0 0 0 0 0 0 0 0-0.1 0-0.1 0-0.1 0.1-0.2 0.1-0.1 0-0.2 0-0.4 0.3-0.8 0.4-0.1 0-0.1 0 0 0 0 0c-0.1 0-0.3 0.1-0.4 0.1q-0.2 0-0.3 0c-0.2 0-0.5 0-0.5 0q0 0 0 0 0 0 0 0 0 0 0 0 0 0 0 0c0.1-0.1 0.3-0.2 0.5-0.2q0 0 0 0 0 0 0 0 0 0 0 0 0 0 0 0 0 0 0 0 0 0 0 0 0 0 0 0 0 0 0 0 0.2 0 0.4-0.1 0 0 0.1 0 0.1-0.1 0.2-0.1 0 0 0 0c-0.1 0-0.2 0-0.2 0q-0.1 0.1-0.1 0.1c-0.1 0-0.2 0-0.3 0q0.2 0 0.3-0.1c0.1 0 0.2 0 0.3-0.1q0 0 0 0 0 0 0 0 0 0 0 0 0 0 0 0 0 0 0 0 0 0 0 0 0 0 0.1 0 0 0 0 0 0.1 0 0.3-0.1 0 0 0.1 0c0.1-0.1 0.2-0.1 0.3-0.1q0 0 0 0 0 0 0 0 0 0 0 0 0 0 0 0 0.1-0.1 0.1-0.1 0 0 0 0 0.1-0.1 0.2-0.1l-0.1 0.1q0 0 0 0 0 0 0 0 0 0 0 0 0 0 0 0c0 0.1-0.1 0.1-0.2 0.1q0 0 0 0 0 0 0 0 0 0 0 0 0 0 0 0 0 0.1 0 0.1 0 0 0 0c0.1 0 0.2 0 0.3-0.1q0.1 0 0.1 0 0.5-0.3 1-0.6 0.7-0.6 1.3-1.2 0.1-0.1 0.2-0.2z"/>
	<path id="Layer" fill-rule="evenodd" class="s45" d="m10 13.6q0 0-0.1 0 0 0 0 0l-0.1 0.1q0 0 0 0 0.3-0.1 0.6-0.2h0.2c0.1 0 0.2 0 0.3 0q0 0 0.1-0.1c0 0 0.1 0 0.2 0q0 0 0 0-0.1 0-0.2 0.1-0.1 0-0.1 0-0.2 0.1-0.4 0.1 0 0 0 0 0 0 0 0 0 0 0 0 0 0 0 0 0 0 0 0 0 0 0 0 0 0 0 0 0 0 0 0c-0.2 0-0.4 0.1-0.5 0.2q0 0 0 0 0 0 0 0 0 0 0 0 0 0 0 0c0 0 0.3 0 0.5 0q0.1 0 0.3 0c0.1 0 0.3-0.1 0.4-0.1q0 0 0 0 0 0 0.1 0 0.4-0.1 0.8-0.4 0.1 0 0.2 0 0.1 0 0.2-0.1 0 0 0.1 0 0 0 0 0 0 0 0 0 0 0 0 0 0 0 0 0.1-0.1 0-0.1 0.1c-0.3 0.2-0.5 0.3-0.8 0.5q0 0 0 0v-0.1q0 0 0 0 0.1 0 0.1 0 0 0 0 0-0.1 0-0.1 0c-0.1 0.1-0.2 0.2-0.4 0.2q0.1 0 0.2-0.1 0.1 0 0-0.1 0 0 0 0 0 0 0 0 0 0 0 0 0 0 0 0 0 0-0.1 0 0 0 0 0-0.1 0.1-0.2 0.1-0.4 0.1-0.5 0.1-0.2 0.1-0.4 0.2c-0.1 0-0.2 0-0.3 0q-0.5 0.2-0.9 0.2c-0.7 0.1-1.1 0.1-1.8 0-0.2 0-0.5-0.1-0.7-0.1q-0.2-0.1-0.4-0.2c-0.1 0-0.2 0-0.4-0.1 0 0-0.1-0.1-0.2-0.2q0 0 0 0 0 0 0 0 0 0 0 0 0 0 0 0-0.1-0.1-0.2-0.3-0.1 0-0.2-0.2c0-0.1 0.3-0.2 0.4-0.3q0 0 0 0 0 0 0 0 0 0 0 0 0 0 0 0c0.1-0.1 0.3 0 0.4 0.1q0 0 0.1 0 0.1 0.1 0.2 0.1 0.2 0 0.3 0.1c0.1 0 0.3 0.1 0.4 0.1q0.3 0.1 0.6 0.2 0.3 0 0.6 0.1c0.5 0 0.9 0 1.4 0q0 0 0 0 0 0 0 0 0 0 0 0 0 0 0 0c0.1-0.1 0.4-0.1 0.4-0.1zm-0.4 0.1q0 0 0 0 0 0 0 0 0 0 0 0 0 0-0.1 0 0 0 0 0 0 0 0 0 0 0 0 0 0 0 0 0 0 0 0 0 0 0 0 0 0 0 0 0 0 0 0 0 0.1 0 0.1 0 0 0 0 0 0 0 0 0 0 0 0 0z"/>
	<path id="Layer" class="s48" d="m11.7 13.1c0 0 0 0 0 0q0 0-0.1 0.1-0.1 0-0.1 0c-0.1 0.1-0.2 0.1-0.3 0.1q-0.1 0-0.2 0.1h-0.3q0 0 0 0.1h-0.3q0.1-0.1 0.3-0.1 0.2 0 0.3-0.1 0.1 0 0.1 0 0.2-0.1 0.3-0.1 0.1-0.1 0.3-0.1z"/>
	<path id="Layer" class="s44" d="m11.7 13.2h-0.1q0 0 0 0 0 0 0 0 0 0 0 0 0 0 0 0-0.1 0-0.1 0 0 0 0.1 0z"/>
	<path id="Layer" class="s46" d="m11.7 13.2q-0.1 0-0.1 0-0.2 0.1-0.3 0.1 0 0 0 0-0.1 0-0.1 0 0 0 0 0 0 0 0 0 0 0 0 0 0 0 0 0 0 0 0 0 0 0 0 0c-0.1 0.1-0.2 0.1-0.3 0.1q-0.1 0.1-0.3 0.1h-0.2q0 0-0.1 0.1-0.1 0-0.2 0 0 0 0.1 0 0.3-0.1 0-0.1 0 0 0 0h0.5q0-0.1 0-0.1 0.2 0 0.3 0 0.1 0 0.2-0.1c0.1 0 0.2 0 0.3-0.1q0 0 0.1 0 0 0 0 0 0 0 0 0 0 0 0 0 0 0 0 0z"/>
	<path id="Layer" class="s50" d="m5.5 14.1q0.1 0 0.2 0.1 0.2 0.1 0.5 0.1 0 0 0 0 0 0 0 0 0 0 0 0 0 0 0 0 0 0 0 0 0.5 0.2 1.1 0.2 0.1 0.1 0.3 0.1 0 0 0 0 0 0 0 0 0 0 0 0.1 0 0 0 0 0 0-0.1 0-0.2 0-0.4 0-0.3 0-0.6-0.1-0.1 0-0.2 0-0.2 0-0.4-0.1 0 0-0.1 0c-0.1-0.1-0.2-0.1-0.4-0.1q-0.5-0.2-1-0.5-0.1 0-0.2-0.1-0.2-0.1-0.3-0.2-0.1 0-0.1-0.1 0 0 0 0-0.1 0-0.1 0 0 0 0 0 0 0 0 0 0 0 0 0 0 0 0 0 0 0 0 0 0 0 0 0 0-0.1 0-0.1 0 0 0 0v-0.1q0 0 0 0 0 0 0 0 0 0 0 0 0 0 0 0c0 0 0.4 0.2 0.5 0.2q0 0 0.1 0.1 0.2 0.1 0.3 0.1 0.4 0.2 0.9 0.4z"/>
	<path id="Layer" class="s48" d="m11 13.3q-0.1 0.1-0.3 0.1-0.2 0-0.3 0.1-0.2 0-0.4 0.1l0.2-0.1q0.1 0 0 0-0.1 0-0.3 0-0.5 0.1-1.2 0.1 0 0 0 0 0 0 0 0 0 0 0 0 0 0 0 0 0 0 0 0c-0.2 0-0.5 0-0.8-0.1q-0.3-0.1-0.6-0.1 0-0.1 0 0h0.5q0.2 0.1 0.5 0.1 0.7 0.1 1.4 0 0 0 0 0 0.1 0 0.1 0 0 0 0 0 0 0 0 0 0 0 0 0 0.6 0 1.2-0.2z"/>
	<path id="Layer" class="s44" d="m11.2 13.3q-0.1 0.1-0.2 0.1 0.1-0.1 0.2-0.1z"/>
	<path id="Layer" class="s44" d="m11 13.4q-0.1 0-0.3 0z"/>
	<path id="Layer" class="s50" d="m7.8 13.4l0.5 0.1q-0.3 0-0.5-0.1z"/>
	<path id="Layer" class="s47" d="m10.4 13.5q-0.3 0.1-0.6 0.2 0 0 0 0l0.1-0.1q0 0 0 0 0.1 0 0.1 0h0.1q0.1 0 0.2 0 0.1-0.1 0.1-0.1z"/>
	<path id="Layer" class="s48" d="m9.9 13.6q-0.2 0-0.3 0z"/>
	<path id="Layer" class="s47" d="m9.5 13.7q0 0 0 0 0 0 0 0 0.1 0 0.1 0 0 0-0.1 0z"/>
	<path id="Layer" class="s47" d="m11.5 13.9q-0.1 0.1-0.2 0.1c0 0.1-0.2 0.1-0.3 0.2 0 0-0.1 0.1 0 0.1q-0.7 0.3-1.5 0.4c-0.2 0-0.4 0-0.5 0.1q-0.2 0-0.3 0-0.1 0-0.1 0 0 0 0 0 0 0 0 0 0 0 0-0.1c0 0 0.2 0 0.3 0q0.2 0 0.3-0.1c0.1 0 0.2 0 0.2 0q0.1 0 0.3 0 0 0 0 0 0 0 0 0 0 0 0 0 0 0 0 0c0.1-0.1 0.1-0.1 0.2-0.1q0 0 0.1 0 0.4-0.1 0.7-0.3 0.1 0 0.2 0 0-0.1 0.1-0.1 0.3 0 0.5-0.2z"/>
	<path id="Layer" class="s48" d="m5.5 14.1q0.3 0.1 0.7 0.2 0 0 0.1 0 0.3 0.1 0.6 0.2 0.1 0 0.2 0c0.5 0.1 0.9 0.1 1.4 0.1 0.1 0 0.1 0.1 0 0.1q-0.1 0-0.2 0-0.6 0-1.2 0 0.2 0 0.4 0 0.1 0 0.1 0 0 0 0 0 0-0.1 0-0.1 0 0 0 0 0 0 0 0-0.2 0-0.3-0.1-0.6 0-1.1-0.2 0 0 0 0 0 0 0 0 0 0 0 0 0 0 0 0 0 0 0 0-0.3 0-0.5-0.1-0.1-0.1-0.2-0.1z"/>
</svg>